<svg xmlns="http://www.w3.org/2000/svg" viewBox="0 0 197.846 193.618"><g data-name="Layer 2"><g data-name="ART"><rect x=".849" y="99.962" width="92.807" height="92.807" rx="13.815" fill="#d8e9f7"/><path d="M79.841 193.618H14.663A14.68 14.68 0 010 178.954v-65.178a14.68 14.68 0 0114.663-14.663h65.178a14.68 14.68 0 0114.664 14.663v65.178a14.68 14.68 0 01-14.664 14.664zm-65.178-92.807a12.98 12.98 0 00-12.965 12.965v65.178a12.981 12.981 0 0012.965 12.967h65.178a12.981 12.981 0 0012.966-12.967v-65.178a12.98 12.98 0 00-12.966-12.965z" fill="#3e4147"/><rect x="13.23" y="112.344" width="68.044" height="68.044" rx="13.815" fill="#f3783c"/><path d="M67.46 181.236H27.044a14.68 14.68 0 01-14.663-14.663v-40.415a14.68 14.68 0 0114.663-14.663h40.414a14.68 14.68 0 0114.664 14.663v40.415a14.68 14.68 0 01-14.664 14.663zm-40.415-68.044a12.98 12.98 0 00-12.966 12.966v40.415a12.98 12.98 0 0012.966 12.966h40.414a12.98 12.98 0 0012.966-12.966v-40.415a12.98 12.98 0 00-12.966-12.966z" fill="#3e4147"/><rect x="104.191" y="99.962" width="92.807" height="92.807" rx="13.815" fill="#cedd3e"/><path d="M183.183 193.618h-65.178a14.68 14.68 0 01-14.663-14.664v-65.178a14.68 14.68 0 0114.663-14.663h65.178a14.68 14.68 0 0114.663 14.663v65.178a14.68 14.68 0 01-14.663 14.664zm-65.178-92.807a12.98 12.98 0 00-12.966 12.965v65.178a12.981 12.981 0 0012.966 12.967h65.178a12.981 12.981 0 0012.966-12.967v-65.178a12.98 12.98 0 00-12.966-12.965z" fill="#3e4147"/><rect x="116.572" y="112.344" width="68.044" height="68.044" rx="13.815" fill="#4495d7"/><path d="M170.801 181.236h-40.414a14.68 14.68 0 01-14.663-14.663v-40.415a14.68 14.68 0 0114.663-14.663H170.8a14.68 14.68 0 0114.664 14.663v40.415a14.68 14.68 0 01-14.664 14.663zm-40.414-68.044a12.98 12.98 0 00-12.966 12.966v40.415a12.98 12.98 0 0012.966 12.966H170.8a12.98 12.98 0 0012.966-12.966v-40.415a12.98 12.98 0 00-12.966-12.966z" fill="#3e4147"/><rect x="55.511" y=".849" width="92.807" height="92.807" rx="13.815" fill="#fdbe2a"/><path d="M134.504 94.505H69.326a14.68 14.68 0 01-14.664-14.663V14.663A14.68 14.68 0 0169.326 0h65.178a14.68 14.68 0 0114.663 14.663v65.179a14.68 14.68 0 01-14.663 14.663zM69.326 1.697A12.98 12.98 0 0056.36 14.663v65.179a12.98 12.98 0 0012.966 12.966h65.178a12.98 12.98 0 0012.965-12.966V14.663a12.98 12.98 0 00-12.965-12.966z" fill="#3e4147"/><rect x="67.893" y="13.231" width="68.044" height="68.044" rx="13.815" fill="#c5a7d4"/><path d="M122.122 82.123H81.708A14.68 14.68 0 0167.044 67.46V27.045a14.68 14.68 0 0114.664-14.663h40.414a14.68 14.68 0 0114.664 14.663V67.46a14.68 14.68 0 01-14.664 14.663zM81.708 14.08a12.98 12.98 0 00-12.966 12.966V67.46a12.98 12.98 0 0012.966 12.966h40.414a12.98 12.98 0 0012.966-12.966V27.045a12.98 12.98 0 00-12.966-12.966z" fill="#3e4147"/><path d="M36.983 128.468h12.136c7.052 0 12.758 1.763 12.758 8.402 0 2.904-1.66 6.223-4.253 7.26v.209a7.678 7.678 0 015.81 7.883c0 6.95-6.017 9.958-13.278 9.958H36.983zm11.928 13.174c2.905 0 4.253-1.35 4.253-3.423 0-2.075-1.348-2.905-4.253-2.905h-3.008v6.328zm.622 13.692c3.527 0 5.187-1.246 5.187-3.734 0-2.49-1.66-3.423-5.187-3.423h-3.63v7.157z" fill="#eff6fb"/><path d="M50.156 163.028H36.983a.849.849 0 01-.849-.848v-33.711a.849.849 0 01.849-.849h12.136c3.365 0 13.607 0 13.607 9.25a9.546 9.546 0 01-3.346 7.222 8.474 8.474 0 014.902 8.13c0 6.666-5.413 10.806-14.126 10.806zm-12.324-1.697h12.324c2.916 0 12.429-.657 12.429-9.11a6.843 6.843 0 00-5.197-7.067.85.85 0 01-.613-.815v-.208a.85.85 0 01.533-.788c2.329-.932 3.72-4.023 3.72-6.473 0-5.152-3.784-7.553-11.91-7.553H37.833zm11.7-5.148h-3.629a.849.849 0 01-.849-.849v-7.157a.849.849 0 01.849-.849h3.63c2.59 0 6.036.443 6.036 4.272 0 2.09-1.048 4.583-6.036 4.583zm-2.78-1.698h2.78c3.846 0 4.34-1.542 4.34-2.885 0-1.303-.336-2.575-4.34-2.575h-2.78zm2.159-11.995h-3.008a.849.849 0 01-.849-.848v-6.329a.849.849 0 01.849-.848h3.008c1.262 0 5.102 0 5.102 3.754 0 2.675-1.908 4.271-5.102 4.271zm-2.16-1.697h2.16c2.259 0 3.404-.866 3.404-2.574 0-1.041-.263-2.057-3.404-2.057h-2.16z" fill="#3e4147"/><path d="M137.006 146.625c0-11.306 7.78-17.737 16.286-17.737a14.881 14.881 0 0110.476 4.46l-4.668 5.705a8.226 8.226 0 00-5.601-2.49c-3.942 0-7.365 3.63-7.365 9.75 0 6.328 2.904 9.855 7.261 9.855a8.417 8.417 0 006.12-2.904l4.667 5.6a14.218 14.218 0 01-11.099 4.98c-8.608 0-16.077-5.705-16.077-17.219z" fill="#eff6fb"/><path d="M153.083 164.692c-11.692 0-16.926-9.074-16.926-18.067 0-12.202 8.62-18.586 17.135-18.586a15.742 15.742 0 0111.076 4.708.848.848 0 01.057 1.138l-4.668 5.705a.844.844 0 01-.587.308.88.88 0 01-.629-.207 7.381 7.381 0 00-5.042-2.279c-3.238 0-6.516 3.058-6.516 8.902 0 5.638 2.397 9.005 6.412 9.005a7.62 7.62 0 005.5-2.634.835.835 0 01.644-.27.848.848 0 01.628.306l4.667 5.6a.848.848 0 01-.008 1.096 15.013 15.013 0 01-11.743 5.275zm.209-34.956c-10.135 0-15.437 8.496-15.437 16.889 0 12.083 8.203 16.37 15.228 16.37a13.374 13.374 0 009.976-4.153l-3.605-4.325a8.954 8.954 0 01-6.059 2.5c-5.002 0-8.11-4.102-8.11-10.704 0-6.958 4.132-10.598 8.214-10.598a8.465 8.465 0 015.488 2.135l3.625-4.43a13.921 13.921 0 00-9.32-3.684z" fill="#3e4147"/><path d="M99.399 29.56h10.787l10.27 33.712h-9.44l-1.66-7.157h-9.438l-1.66 7.157h-9.129zm2.125 19.658h6.225l-.57-2.335c-.831-3.215-1.66-7.313-2.49-10.684h-.208c-.725 3.423-1.556 7.47-2.386 10.684z" fill="#eff6fb"/><path d="M120.455 64.12h-9.439a.85.85 0 01-.827-.657l-1.507-6.5h-8.09l-1.507 6.5a.85.85 0 01-.827.657H89.13a.849.849 0 01-.812-1.096l10.269-33.71a.849.849 0 01.812-.602h10.787a.849.849 0 01.812.601l10.27 33.711a.849.849 0 01-.813 1.096zm-8.764-1.697h7.618l-9.752-32.014h-9.53l-9.752 32.014h7.308l1.508-6.5a.85.85 0 01.827-.657h9.439a.85.85 0 01.826.657zm-3.942-12.357h-6.225a.848.848 0 01-.824-1.05l.57-2.334c.718-2.78 1.444-6.223 2.086-9.261l.295-1.398a.849.849 0 01.83-.672h.207a.849.849 0 01.824.645c.377 1.528.753 3.206 1.13 4.884.445 1.987.906 4.042 1.358 5.79l.573 2.347a.848.848 0 01-.824 1.05zm-5.144-1.697h4.063l-.314-1.285c-.456-1.765-.92-3.833-1.369-5.833-.12-.54-.242-1.08-.363-1.614-.54 2.543-1.125 5.212-1.706 7.458z" fill="#3e4147"/></g></g></svg>
